<mxfile host="65bd71144e">
    <diagram id="W4Q3eTXKl0YiwQAIA3in" name="Page-1">
        <mxGraphModel dx="1590" dy="602" grid="1" gridSize="10" guides="1" tooltips="1" connect="1" arrows="1" fold="1" page="1" pageScale="1" pageWidth="850" pageHeight="1100" math="0" shadow="0">
            <root>
                <mxCell id="0"/>
                <mxCell id="1" parent="0"/>
                <mxCell id="2" value="" style="edgeStyle=none;html=1;" parent="1" source="3" target="5" edge="1">
                    <mxGeometry relative="1" as="geometry"/>
                </mxCell>
                <mxCell id="3" value="Начало" style="strokeWidth=2;html=1;shape=mxgraph.flowchart.terminator;whiteSpace=wrap;" parent="1" vertex="1">
                    <mxGeometry x="310" y="35" width="120" height="50" as="geometry"/>
                </mxCell>
                <mxCell id="4" value="Конец" style="strokeWidth=2;html=1;shape=mxgraph.flowchart.terminator;whiteSpace=wrap;" parent="1" vertex="1">
                    <mxGeometry x="310" y="760" width="120" height="50" as="geometry"/>
                </mxCell>
                <mxCell id="5" value="r = пустое значение" style="rounded=0;whiteSpace=wrap;html=1;" parent="1" vertex="1">
                    <mxGeometry x="310" y="115" width="120" height="50" as="geometry"/>
                </mxCell>
                <mxCell id="6" value="" style="edgeStyle=none;html=1;exitX=0;exitY=0.5;exitDx=0;exitDy=0;exitPerimeter=0;entryX=0.5;entryY=0;entryDx=0;entryDy=0;entryPerimeter=0;" parent="1" source="23" target="10" edge="1">
                    <mxGeometry relative="1" as="geometry">
                        <mxPoint x="120" y="460" as="sourcePoint"/>
                        <Array as="points">
                            <mxPoint x="160" y="415"/>
                        </Array>
                    </mxGeometry>
                </mxCell>
                <mxCell id="8" value="" style="edgeStyle=none;html=1;" parent="1" target="4" edge="1">
                    <mxGeometry relative="1" as="geometry">
                        <mxPoint x="370" y="720" as="sourcePoint"/>
                    </mxGeometry>
                </mxCell>
                <mxCell id="10" value="значение ключа&amp;nbsp;&lt;br&gt;username &amp;gt; val?" style="strokeWidth=2;html=1;shape=mxgraph.flowchart.decision;whiteSpace=wrap;" parent="1" vertex="1">
                    <mxGeometry x="90" y="450" width="140" height="70" as="geometry"/>
                </mxCell>
                <mxCell id="12" value="" style="endArrow=classic;html=1;exitX=0.5;exitY=1;exitDx=0;exitDy=0;entryX=0.5;entryY=0;entryDx=0;entryDy=0;entryPerimeter=0;" parent="1" source="5" target="20" edge="1">
                    <mxGeometry width="50" height="50" relative="1" as="geometry">
                        <mxPoint x="350" y="435" as="sourcePoint"/>
                        <mxPoint x="370" y="195" as="targetPoint"/>
                    </mxGeometry>
                </mxCell>
                <mxCell id="13" value="" style="endArrow=classic;html=1;exitX=1;exitY=0.5;exitDx=0;exitDy=0;exitPerimeter=0;entryX=0.5;entryY=0;entryDx=0;entryDy=0;" parent="1" source="10" target="31" edge="1">
                    <mxGeometry width="50" height="50" relative="1" as="geometry">
                        <mxPoint x="140" y="610" as="sourcePoint"/>
                        <mxPoint x="290" y="510" as="targetPoint"/>
                        <Array as="points">
                            <mxPoint x="275" y="485"/>
                        </Array>
                    </mxGeometry>
                </mxCell>
                <mxCell id="14" value="" style="endArrow=none;html=1;entryX=0.5;entryY=1;entryDx=0;entryDy=0;exitX=0.5;exitY=1;exitDx=0;exitDy=0;" parent="1" source="30" edge="1" target="31">
                    <mxGeometry width="50" height="50" relative="1" as="geometry">
                        <mxPoint x="-30" y="580" as="sourcePoint"/>
                        <mxPoint x="290" y="560" as="targetPoint"/>
                        <Array as="points">
                            <mxPoint x="55" y="580"/>
                            <mxPoint x="275" y="580"/>
                        </Array>
                    </mxGeometry>
                </mxCell>
                <mxCell id="15" value="" style="endArrow=classic;html=1;exitX=1;exitY=0.5;exitDx=0;exitDy=0;exitPerimeter=0;entryX=0.5;entryY=0;entryDx=0;entryDy=0;" parent="1" source="20" target="22" edge="1">
                    <mxGeometry width="50" height="50" relative="1" as="geometry">
                        <mxPoint x="580" y="425" as="sourcePoint"/>
                        <mxPoint x="485" y="255" as="targetPoint"/>
                        <Array as="points">
                            <mxPoint x="485" y="230"/>
                        </Array>
                    </mxGeometry>
                </mxCell>
                <mxCell id="16" value="Да&lt;br&gt;" style="text;html=1;align=center;verticalAlign=middle;resizable=0;points=[];autosize=1;strokeColor=none;" parent="1" vertex="1">
                    <mxGeometry x="230" y="460" width="30" height="20" as="geometry"/>
                </mxCell>
                <mxCell id="17" value="" style="strokeWidth=2;html=1;shape=mxgraph.flowchart.annotation_2;align=left;labelPosition=right;pointerEvents=1;" parent="1" vertex="1">
                    <mxGeometry x="460" y="10" width="50" height="100" as="geometry"/>
                </mxCell>
                <mxCell id="18" value="" style="endArrow=none;dashed=1;html=1;entryX=0;entryY=0.5;entryDx=0;entryDy=0;entryPerimeter=0;exitX=1;exitY=0.5;exitDx=0;exitDy=0;exitPerimeter=0;" parent="1" source="3" target="17" edge="1">
                    <mxGeometry width="50" height="50" relative="1" as="geometry">
                        <mxPoint x="350" y="325" as="sourcePoint"/>
                        <mxPoint x="400" y="275" as="targetPoint"/>
                    </mxGeometry>
                </mxCell>
                <mxCell id="19" value="Двоичный по&lt;br&gt;dict - словарь&lt;br&gt;val - ключ по которому &lt;br&gt;осуществляется поиск" style="text;html=1;align=center;verticalAlign=middle;resizable=0;points=[];autosize=1;strokeColor=none;" parent="1" vertex="1">
                    <mxGeometry x="490" y="30" width="140" height="60" as="geometry"/>
                </mxCell>
                <mxCell id="20" value="Словарь пуст?" style="strokeWidth=2;html=1;shape=mxgraph.flowchart.decision;whiteSpace=wrap;" parent="1" vertex="1">
                    <mxGeometry x="300" y="195" width="140" height="70" as="geometry"/>
                </mxCell>
                <mxCell id="27" value="" style="edgeStyle=none;html=1;" parent="1" source="21" target="23" edge="1">
                    <mxGeometry relative="1" as="geometry"/>
                </mxCell>
                <mxCell id="21" value="min = len(dict) / 2" style="rounded=0;whiteSpace=wrap;html=1;" parent="1" vertex="1">
                    <mxGeometry x="200" y="300" width="120" height="50" as="geometry"/>
                </mxCell>
                <mxCell id="22" value="r = текущий элемент словаря" style="rounded=0;whiteSpace=wrap;html=1;" parent="1" vertex="1">
                    <mxGeometry x="425" y="300" width="120" height="50" as="geometry"/>
                </mxCell>
                <mxCell id="23" value="значение ключа&amp;nbsp;&lt;br&gt;username = val?" style="strokeWidth=2;html=1;shape=mxgraph.flowchart.decision;whiteSpace=wrap;" parent="1" vertex="1">
                    <mxGeometry x="190" y="380" width="140" height="70" as="geometry"/>
                </mxCell>
                <mxCell id="24" value="" style="endArrow=none;html=1;entryX=1;entryY=0.5;entryDx=0;entryDy=0;entryPerimeter=0;" parent="1" target="23" edge="1">
                    <mxGeometry width="50" height="50" relative="1" as="geometry">
                        <mxPoint x="160" y="580" as="sourcePoint"/>
                        <mxPoint x="320" y="550" as="targetPoint"/>
                        <Array as="points">
                            <mxPoint x="160" y="660"/>
                            <mxPoint x="360" y="660"/>
                            <mxPoint x="360" y="415"/>
                        </Array>
                    </mxGeometry>
                </mxCell>
                <mxCell id="25" value="" style="endArrow=none;html=1;entryX=0.5;entryY=1;entryDx=0;entryDy=0;" parent="1" target="22" edge="1">
                    <mxGeometry width="50" height="50" relative="1" as="geometry">
                        <mxPoint x="220" y="660" as="sourcePoint"/>
                        <mxPoint x="320" y="550" as="targetPoint"/>
                        <Array as="points">
                            <mxPoint x="220" y="720"/>
                            <mxPoint x="485" y="720"/>
                        </Array>
                    </mxGeometry>
                </mxCell>
                <mxCell id="26" value="" style="endArrow=classic;html=1;exitX=0;exitY=0.5;exitDx=0;exitDy=0;exitPerimeter=0;entryX=0.5;entryY=0;entryDx=0;entryDy=0;" parent="1" source="20" target="21" edge="1">
                    <mxGeometry width="50" height="50" relative="1" as="geometry">
                        <mxPoint x="270" y="365" as="sourcePoint"/>
                        <mxPoint x="260" y="255" as="targetPoint"/>
                        <Array as="points">
                            <mxPoint x="260" y="230"/>
                        </Array>
                    </mxGeometry>
                </mxCell>
                <mxCell id="28" value="Да&lt;br&gt;" style="text;html=1;align=center;verticalAlign=middle;resizable=0;points=[];autosize=1;strokeColor=none;" parent="1" vertex="1">
                    <mxGeometry x="320" y="390" width="30" height="20" as="geometry"/>
                </mxCell>
                <mxCell id="29" value="Да&lt;br&gt;" style="text;html=1;align=center;verticalAlign=middle;resizable=0;points=[];autosize=1;strokeColor=none;" parent="1" vertex="1">
                    <mxGeometry x="440" y="205" width="30" height="20" as="geometry"/>
                </mxCell>
                <mxCell id="30" value="Двоичный поиск (dict[0:mid + 1], val)" style="shape=process;whiteSpace=wrap;html=1;backgroundOutline=1;" parent="1" vertex="1">
                    <mxGeometry x="-10" y="510" width="130" height="50" as="geometry"/>
                </mxCell>
                <mxCell id="31" value="Двоичный поиск (dict[mid:len(dict), val)" style="shape=process;whiteSpace=wrap;html=1;backgroundOutline=1;" parent="1" vertex="1">
                    <mxGeometry x="210" y="510" width="130" height="50" as="geometry"/>
                </mxCell>
                <mxCell id="32" value="" style="endArrow=classic;html=1;exitX=0;exitY=0.5;exitDx=0;exitDy=0;exitPerimeter=0;entryX=0.5;entryY=0;entryDx=0;entryDy=0;" parent="1" source="10" target="30" edge="1">
                    <mxGeometry width="50" height="50" relative="1" as="geometry">
                        <mxPoint x="220" y="500" as="sourcePoint"/>
                        <mxPoint x="270" y="450" as="targetPoint"/>
                        <Array as="points">
                            <mxPoint x="55" y="485"/>
                        </Array>
                    </mxGeometry>
                </mxCell>
            </root>
        </mxGraphModel>
    </diagram>
</mxfile>